<svg height="682.667" width="682.667" xmlns="http://www.w3.org/2000/svg" xmlns:xlink="http://www.w3.org/1999/xlink"><clipPath id="a"><path clip-rule="evenodd" d="m2560 0c1413.85 0 2560 1146.15 2560 2560s-1146.15 2560-2560 2560-2560-1146.15-2560-2560 1146.15-2560 2560-2560z"/></clipPath><clipPath id="b"><path d="m0 0h5120v5120h-5120z"/></clipPath><clipPath id="c"><path clip-rule="evenodd" d="m3057.78 1754.95h-1867.81l872.23 1610.1h1867.83z"/></clipPath><clipPath id="d"><path d="m0 0h5120v5120h-5120z"/></clipPath><g clip-path="url(#a)" transform="matrix(.13333 0 0 -.13333 0 682.667)"><g clip-path="url(#b)"><path d="m0 0h5170v5170h-5170z" fill="#17a0c4"/></g></g><g clip-path="url(#c)" transform="matrix(.13333 0 0 -.13333 0 682.667)"><g clip-path="url(#d)"><path d="m1139.97 1704.95h2840.06v1710.1h-2840.06z" fill="#fff"/></g></g></svg>