<svg xmlns="http://www.w3.org/2000/svg" height="682.667" width="682.667" xml:space="preserve"><defs><clipPath id="a" clipPathUnits="userSpaceOnUse"><path style="clip-rule:evenodd" d="M2560 0c1413.85 0 2560 1146.15 2560 2560S3973.85 5120 2560 5120 0 3973.85 0 2560 1146.15 0 2560 0Z"/></clipPath><clipPath id="b" clipPathUnits="userSpaceOnUse"><path d="M0 0h5120v5120H0Z"/></clipPath><clipPath id="c" clipPathUnits="userSpaceOnUse"><path style="clip-rule:evenodd" d="M3057.78 1754.95H1189.97l872.23 1610.1h1867.83l-872.25-1610.1"/></clipPath><clipPath id="d" clipPathUnits="userSpaceOnUse"><path d="M0 0h5120v5120H0Z"/></clipPath></defs><g clip-path="url(#a)" transform="matrix(.13333 0 0 -.13333 0 682.667)"><g clip-path="url(#b)"><path style="fill:#17a0c4;fill-opacity:1;fill-rule:nonzero;stroke:none" d="M0 0h5170v5170H0Z"/></g></g><g clip-path="url(#c)" transform="matrix(.13333 0 0 -.13333 0 682.667)"><g clip-path="url(#d)"><path style="fill:#fff;fill-opacity:1;fill-rule:nonzero;stroke:none" d="M1139.97 1704.95h2840.06v1710.1H1139.97Z"/></g></g></svg>